<mxfile host="app.diagrams.net" modified="2023-11-08T08:57:33.101Z" agent="Mozilla/5.0 (Windows NT 10.0; Win64; x64) AppleWebKit/537.36 (KHTML, like Gecko) Chrome/119.0.0.0 Safari/537.36" etag="785r-3N1J2PbUfHDvQTp" version="22.0.8" type="gitlab">
  <diagram name="Page-1" id="03018318-947c-dd8e-b7a3-06fadd420f32">
    <mxGraphModel dx="1235" dy="722" grid="1" gridSize="10" guides="1" tooltips="1" connect="1" arrows="1" fold="1" page="1" pageScale="1" pageWidth="1100" pageHeight="850" background="none" math="0" shadow="0">
      <root>
        <mxCell id="0" />
        <mxCell id="1" parent="0" />
        <mxCell id="E-asVwBF8oDP0L_Lnprs-3" value="LOGO" style="whiteSpace=wrap;html=1;rounded=0;shadow=0;labelBackgroundColor=none;strokeWidth=1;fontFamily=Verdana;fontSize=28;align=center;comic=1;" vertex="1" parent="1">
          <mxGeometry x="40" y="52" width="190" height="50" as="geometry" />
        </mxCell>
        <mxCell id="E-asVwBF8oDP0L_Lnprs-4" value="Home" style="text;html=1;points=[];align=left;verticalAlign=top;spacingTop=-4;fontSize=14;fontFamily=Verdana" vertex="1" parent="1">
          <mxGeometry x="330" y="67" width="60" height="20" as="geometry" />
        </mxCell>
        <mxCell id="E-asVwBF8oDP0L_Lnprs-5" value="Predict" style="text;html=1;points=[];align=left;verticalAlign=top;spacingTop=-4;fontSize=14;fontFamily=Verdana" vertex="1" parent="1">
          <mxGeometry x="450" y="67" width="60" height="20" as="geometry" />
        </mxCell>
        <mxCell id="E-asVwBF8oDP0L_Lnprs-6" value="" style="line;strokeWidth=1;html=1;rounded=0;shadow=0;labelBackgroundColor=none;fillColor=none;fontFamily=Verdana;fontSize=14;fontColor=#000000;align=center;comic=1;" vertex="1" parent="1">
          <mxGeometry y="152" width="1100" height="10" as="geometry" />
        </mxCell>
        <mxCell id="E-asVwBF8oDP0L_Lnprs-8" value="History" style="text;html=1;points=[];align=left;verticalAlign=top;spacingTop=-4;fontSize=14;fontFamily=Verdana" vertex="1" parent="1">
          <mxGeometry x="590" y="67" width="60" height="20" as="geometry" />
        </mxCell>
        <mxCell id="E-asVwBF8oDP0L_Lnprs-9" value="About us" style="text;html=1;points=[];align=left;verticalAlign=top;spacingTop=-4;fontSize=14;fontFamily=Verdana" vertex="1" parent="1">
          <mxGeometry x="730" y="67" width="60" height="20" as="geometry" />
        </mxCell>
        <mxCell id="E-asVwBF8oDP0L_Lnprs-10" value="" style="verticalLabelPosition=bottom;shadow=0;dashed=0;align=center;html=1;verticalAlign=top;strokeWidth=1;shape=mxgraph.mockup.containers.userMale;strokeColor=#666666;strokeColor2=#008cff;" vertex="1" parent="1">
          <mxGeometry x="890" y="40" width="80" height="80" as="geometry" />
        </mxCell>
        <mxCell id="E-asVwBF8oDP0L_Lnprs-11" value="" style="group" vertex="1" connectable="0" parent="1">
          <mxGeometry x="990" y="64" width="90" height="26" as="geometry" />
        </mxCell>
        <mxCell id="E-asVwBF8oDP0L_Lnprs-12" value="" style="rounded=1;whiteSpace=wrap;html=1;" vertex="1" parent="E-asVwBF8oDP0L_Lnprs-11">
          <mxGeometry width="90" height="26" as="geometry" />
        </mxCell>
        <mxCell id="E-asVwBF8oDP0L_Lnprs-13" value="Log Out" style="text;html=1;points=[];align=left;verticalAlign=top;spacingTop=-4;fontSize=14;fontFamily=Verdana" vertex="1" parent="E-asVwBF8oDP0L_Lnprs-11">
          <mxGeometry x="15" width="60" height="20" as="geometry" />
        </mxCell>
        <mxCell id="E-asVwBF8oDP0L_Lnprs-14" value="" style="line;strokeWidth=1;html=1;rounded=0;shadow=0;labelBackgroundColor=none;fillColor=none;fontFamily=Verdana;fontSize=14;fontColor=#000000;align=center;comic=1;" vertex="1" parent="1">
          <mxGeometry y="762" width="1100" height="10" as="geometry" />
        </mxCell>
        <mxCell id="E-asVwBF8oDP0L_Lnprs-15" value="Copyright&amp;nbsp;&amp;nbsp;Â© 2023. Ryan Yeo. All Rights Reserved" style="text;html=1;align=center;verticalAlign=middle;resizable=0;points=[];autosize=1;strokeColor=none;fillColor=none;" vertex="1" parent="1">
          <mxGeometry x="70" y="792" width="290" height="30" as="geometry" />
        </mxCell>
        <mxCell id="E-asVwBF8oDP0L_Lnprs-17" value="Car Brand" style="strokeWidth=1;shadow=0;dashed=0;align=center;html=1;shape=mxgraph.mockup.forms.comboBox;strokeColor=#999999;fillColor=#ddeeff;align=left;fillColor2=#aaddff;mainText=;fontColor=#666666;fontSize=17;spacingLeft=3;" vertex="1" parent="1">
          <mxGeometry x="280" y="270" width="220" height="30" as="geometry" />
        </mxCell>
        <mxCell id="E-asVwBF8oDP0L_Lnprs-18" value="Car Model" style="strokeWidth=1;shadow=0;dashed=0;align=center;html=1;shape=mxgraph.mockup.forms.comboBox;strokeColor=#999999;fillColor=#ddeeff;align=left;fillColor2=#aaddff;mainText=;fontColor=#666666;fontSize=17;spacingLeft=3;" vertex="1" parent="1">
          <mxGeometry x="280" y="339.5" width="220" height="30" as="geometry" />
        </mxCell>
        <mxCell id="E-asVwBF8oDP0L_Lnprs-30" value="" style="group" vertex="1" connectable="0" parent="1">
          <mxGeometry x="280" y="404" width="220" height="95" as="geometry" />
        </mxCell>
        <mxCell id="E-asVwBF8oDP0L_Lnprs-26" value="&lt;table cellpadding=&quot;0&quot; cellspacing=&quot;0&quot; style=&quot;width:100%;height:100%;&quot;&gt;&lt;tbody&gt;&lt;tr&gt;&lt;td style=&quot;width:85%&quot;&gt;2005&lt;/td&gt;&lt;td style=&quot;width:15%&quot;&gt;&lt;/td&gt;&lt;/tr&gt;&lt;/tbody&gt;&lt;/table&gt;" style="strokeWidth=1;shadow=0;dashed=0;align=center;html=1;shape=mxgraph.mockup.forms.spinner;strokeColor=#999999;spinLayout=right;spinStyle=normal;adjStyle=triangle;fillColor=#aaddff;fontSize=17;fontColor=#666666;mainText=;html=1;overflow=fill;" vertex="1" parent="E-asVwBF8oDP0L_Lnprs-30">
          <mxGeometry y="35" width="160" height="60" as="geometry" />
        </mxCell>
        <mxCell id="E-asVwBF8oDP0L_Lnprs-27" value="&lt;font style=&quot;font-size: 16px;&quot;&gt;Registration Year&lt;/font&gt;" style="text;html=1;points=[];align=left;verticalAlign=top;spacingTop=-4;fontSize=14;fontFamily=Verdana;fontStyle=4" vertex="1" parent="E-asVwBF8oDP0L_Lnprs-30">
          <mxGeometry width="220" height="20" as="geometry" />
        </mxCell>
        <mxCell id="E-asVwBF8oDP0L_Lnprs-31" value="" style="group" vertex="1" connectable="0" parent="1">
          <mxGeometry x="280" y="537" width="220" height="160" as="geometry" />
        </mxCell>
        <mxCell id="E-asVwBF8oDP0L_Lnprs-19" value="" style="strokeWidth=1;shadow=0;dashed=0;align=center;html=1;shape=mxgraph.mockup.forms.rrect;rSize=0;strokeColor=#999999;fillColor=#ffffff;recursiveResize=0;container=0;" vertex="1" parent="E-asVwBF8oDP0L_Lnprs-31">
          <mxGeometry y="27.996666666666663" width="220" height="117.33333333333333" as="geometry" />
        </mxCell>
        <mxCell id="E-asVwBF8oDP0L_Lnprs-25" value="&lt;font style=&quot;font-size: 16px;&quot;&gt;Gearbox Type&lt;/font&gt;" style="text;html=1;points=[];align=left;verticalAlign=top;spacingTop=-4;fontSize=14;fontFamily=Verdana;fontStyle=4" vertex="1" parent="E-asVwBF8oDP0L_Lnprs-31">
          <mxGeometry width="220" height="17.066666666666666" as="geometry" />
        </mxCell>
        <mxCell id="E-asVwBF8oDP0L_Lnprs-20" value="Manual" style="shape=ellipse;rSize=0;fillColor=#eeeeee;strokeColor=#999999;gradientColor=#cccccc;html=1;align=left;spacingLeft=4;fontSize=17;fontColor=#666666;labelPosition=right;" vertex="1" parent="E-asVwBF8oDP0L_Lnprs-31">
          <mxGeometry x="8" y="49.06666666666663" width="15" height="12.8" as="geometry" />
        </mxCell>
        <mxCell id="E-asVwBF8oDP0L_Lnprs-21" value="Semi-Auto" style="shape=ellipse;rSize=0;fillColor=#eeeeee;strokeColor=#999999;gradientColor=#cccccc;html=1;align=left;spacingLeft=4;fontSize=17;fontColor=#666666;labelPosition=right;" vertex="1" parent="E-asVwBF8oDP0L_Lnprs-31">
          <mxGeometry x="8" y="74.66666666666663" width="15" height="12.8" as="geometry" />
        </mxCell>
        <mxCell id="E-asVwBF8oDP0L_Lnprs-22" value="Automatic" style="shape=ellipse;rSize=0;fillColor=#aaaaaa;strokeColor=#444444;gradientColor=#666666;html=1;align=left;spacingLeft=4;fontSize=17;fontColor=#008cff;labelPosition=right;" vertex="1" parent="E-asVwBF8oDP0L_Lnprs-31">
          <mxGeometry x="8" y="100.26666666666662" width="15" height="12.8" as="geometry" />
        </mxCell>
        <mxCell id="E-asVwBF8oDP0L_Lnprs-23" value="" style="shape=ellipse;fillColor=#444444;strokeColor=none;html=1;" vertex="1" parent="E-asVwBF8oDP0L_Lnprs-22">
          <mxGeometry x="3" y="2.5600000000000005" width="9" height="7.68" as="geometry" />
        </mxCell>
        <mxCell id="E-asVwBF8oDP0L_Lnprs-58" value="" style="group" vertex="1" connectable="0" parent="1">
          <mxGeometry x="600" y="270" width="220" height="155" as="geometry" />
        </mxCell>
        <mxCell id="E-asVwBF8oDP0L_Lnprs-51" value="" style="strokeWidth=1;shadow=0;dashed=0;align=center;html=1;shape=mxgraph.mockup.forms.rrect;rSize=0;strokeColor=#999999;fillColor=#ffffff;recursiveResize=0;" vertex="1" parent="E-asVwBF8oDP0L_Lnprs-58">
          <mxGeometry y="90" width="220" height="120" as="geometry" />
        </mxCell>
        <mxCell id="E-asVwBF8oDP0L_Lnprs-52" value="Petrol" style="shape=ellipse;rSize=0;fillColor=#eeeeee;strokeColor=#999999;gradientColor=#cccccc;html=1;align=left;spacingLeft=4;fontSize=17;fontColor=#666666;labelPosition=right;" vertex="1" parent="E-asVwBF8oDP0L_Lnprs-51">
          <mxGeometry x="8" y="7.5" width="15" height="15" as="geometry" />
        </mxCell>
        <mxCell id="E-asVwBF8oDP0L_Lnprs-53" value="Diesel" style="shape=ellipse;rSize=0;fillColor=#eeeeee;strokeColor=#999999;gradientColor=#cccccc;html=1;align=left;spacingLeft=4;fontSize=17;fontColor=#666666;labelPosition=right;" vertex="1" parent="E-asVwBF8oDP0L_Lnprs-51">
          <mxGeometry x="8" y="37.5" width="15" height="15" as="geometry" />
        </mxCell>
        <mxCell id="E-asVwBF8oDP0L_Lnprs-54" value="Hybrid" style="shape=ellipse;rSize=0;fillColor=#aaaaaa;strokeColor=#444444;gradientColor=#666666;html=1;align=left;spacingLeft=4;fontSize=17;fontColor=#008cff;labelPosition=right;" vertex="1" parent="E-asVwBF8oDP0L_Lnprs-51">
          <mxGeometry x="8" y="67.5" width="15" height="15" as="geometry" />
        </mxCell>
        <mxCell id="E-asVwBF8oDP0L_Lnprs-55" value="" style="shape=ellipse;fillColor=#444444;strokeColor=none;html=1;" vertex="1" parent="E-asVwBF8oDP0L_Lnprs-54">
          <mxGeometry x="3" y="3" width="9" height="9" as="geometry" />
        </mxCell>
        <mxCell id="E-asVwBF8oDP0L_Lnprs-56" value="Electric" style="shape=ellipse;rSize=0;fillColor=#eeeeee;strokeColor=#999999;gradientColor=#cccccc;html=1;align=left;spacingLeft=4;fontSize=17;fontColor=#666666;labelPosition=right;" vertex="1" parent="E-asVwBF8oDP0L_Lnprs-51">
          <mxGeometry x="8" y="97.5" width="15" height="15" as="geometry" />
        </mxCell>
        <mxCell id="E-asVwBF8oDP0L_Lnprs-57" value="&lt;font style=&quot;font-size: 16px;&quot;&gt;Fuel Type&lt;/font&gt;" style="text;html=1;points=[];align=left;verticalAlign=top;spacingTop=-4;fontSize=14;fontFamily=Verdana;fontStyle=4" vertex="1" parent="E-asVwBF8oDP0L_Lnprs-58">
          <mxGeometry y="55" width="220" height="20" as="geometry" />
        </mxCell>
        <mxCell id="E-asVwBF8oDP0L_Lnprs-32" value="" style="group" vertex="1" connectable="0" parent="E-asVwBF8oDP0L_Lnprs-58">
          <mxGeometry y="-10" width="220" height="60" as="geometry" />
        </mxCell>
        <mxCell id="E-asVwBF8oDP0L_Lnprs-28" value="" style="verticalLabelPosition=bottom;shadow=0;dashed=0;align=center;html=1;verticalAlign=top;strokeWidth=1;shape=mxgraph.mockup.forms.horSlider;strokeColor=#999999;sliderStyle=basic;sliderPos=20;handleStyle=circle;fillColor2=#ddeeff;" vertex="1" parent="E-asVwBF8oDP0L_Lnprs-32">
          <mxGeometry y="30" width="210" height="30" as="geometry" />
        </mxCell>
        <mxCell id="E-asVwBF8oDP0L_Lnprs-29" value="&lt;font style=&quot;font-size: 16px;&quot;&gt;Mileage Used&lt;/font&gt;" style="text;html=1;points=[];align=left;verticalAlign=top;spacingTop=-4;fontSize=14;fontFamily=Verdana;fontStyle=4" vertex="1" parent="E-asVwBF8oDP0L_Lnprs-32">
          <mxGeometry width="220" height="20" as="geometry" />
        </mxCell>
        <mxCell id="E-asVwBF8oDP0L_Lnprs-60" value="" style="rounded=1;whiteSpace=wrap;html=1;" vertex="1" parent="1">
          <mxGeometry x="600" y="518" width="220" height="30" as="geometry" />
        </mxCell>
        <mxCell id="E-asVwBF8oDP0L_Lnprs-61" value="" style="rounded=1;whiteSpace=wrap;html=1;" vertex="1" parent="1">
          <mxGeometry x="600" y="587" width="220" height="30" as="geometry" />
        </mxCell>
        <mxCell id="E-asVwBF8oDP0L_Lnprs-62" value="" style="rounded=1;whiteSpace=wrap;html=1;" vertex="1" parent="1">
          <mxGeometry x="600" y="650" width="220" height="30" as="geometry" />
        </mxCell>
        <mxCell id="E-asVwBF8oDP0L_Lnprs-66" value="&lt;font style=&quot;font-size: 16px;&quot;&gt;Miles Per Gallon&lt;/font&gt;" style="text;html=1;points=[];align=left;verticalAlign=top;spacingTop=-4;fontSize=14;fontFamily=Verdana;fontStyle=4" vertex="1" parent="1">
          <mxGeometry x="600" y="557" width="220" height="20" as="geometry" />
        </mxCell>
        <mxCell id="E-asVwBF8oDP0L_Lnprs-67" value="&lt;font style=&quot;font-size: 16px;&quot;&gt;Road Tax&lt;/font&gt;" style="text;html=1;points=[];align=left;verticalAlign=top;spacingTop=-4;fontSize=14;fontFamily=Verdana;fontStyle=4" vertex="1" parent="1">
          <mxGeometry x="600" y="488" width="220" height="20" as="geometry" />
        </mxCell>
        <mxCell id="E-asVwBF8oDP0L_Lnprs-68" value="&lt;font style=&quot;font-size: 16px;&quot;&gt;Engine Size (litres)&lt;/font&gt;" style="text;html=1;points=[];align=left;verticalAlign=top;spacingTop=-4;fontSize=14;fontFamily=Verdana;fontStyle=4" vertex="1" parent="1">
          <mxGeometry x="600" y="620" width="220" height="20" as="geometry" />
        </mxCell>
        <mxCell id="E-asVwBF8oDP0L_Lnprs-69" value="The price of the car is:&amp;nbsp;Â£20, 000" style="rounded=1;whiteSpace=wrap;html=1;fillColor=#d5e8d4;strokeColor=#82b366;" vertex="1" parent="1">
          <mxGeometry x="280" y="180" width="540" height="60" as="geometry" />
        </mxCell>
      </root>
    </mxGraphModel>
  </diagram>
</mxfile>
